<svg width="24" height="24" viewBox="0 0 24 24" fill="currentColor" xmlns="http://www.w3.org/2000/svg">
<path d="M17.4595 9.9596L17.4595 9.95961L17.4614 9.95774C17.5798 9.83512 17.6452 9.67091 17.6437 9.50052C17.6423 9.33009 17.5739 9.16706 17.4534 9.04654C17.3329 8.92603 17.1699 8.85767 16.9994 8.85619C16.829 8.85471 16.6648 8.92022 16.5422 9.03863L16.5422 9.03861L16.5404 9.04045L11.9999 13.5809L7.45953 9.04046L7.45954 9.04045L7.45767 9.03864C7.33507 8.92023 7.17088 8.85472 7.00046 8.8562C6.83003 8.85768 6.667 8.92604 6.54648 9.04656C6.42597 9.16707 6.35761 9.3301 6.35613 9.50053C6.35465 9.67095 6.42016 9.83515 6.53857 9.95774L6.53855 9.95775L6.54039 9.9596L11.5404 14.9596C11.5404 14.9596 11.5404 14.9596 11.5404 14.9596C11.6007 15.02 11.6724 15.0678 11.7512 15.1005C11.8301 15.1332 11.9146 15.15 12 15.15C12.0853 15.15 12.1698 15.1332 12.2487 15.1005C12.3275 15.0678 12.3992 15.02 12.4595 14.9596C12.4595 14.9596 12.4595 14.9596 12.4595 14.9596L17.4595 9.9596Z" fill="currentColor" stroke="currentColor" stroke-width="0.3"/>
</svg>
