<svg width="24" height="24" viewBox="0 0 24 24" fill="none" xmlns="http://www.w3.org/2000/svg">
<g clip-path="url(#clip0_108_1315)">
<path d="M3.75 10.5C4.164 10.5 4.5 10.836 4.5 11.25C4.5 11.664 4.164 12 3.75 12C3.336 12 3 11.664 3 11.25C3 10.836 3.336 10.5 3.75 10.5Z" fill="#5B6B7A"/>
<path d="M6.75 10.5C7.164 10.5 7.5 10.836 7.5 11.25C7.5 11.664 7.164 12 6.75 12C6.336 12 6 11.664 6 11.25C6 10.836 6.336 10.5 6.75 10.5Z" fill="#5B6B7A"/>
<path d="M9.75 10.5C10.164 10.5 10.5 10.836 10.5 11.25C10.5 11.664 10.164 12 9.75 12C9.336 12 9 11.664 9 11.25C9 10.836 9.336 10.5 9.75 10.5Z" fill="#5B6B7A"/>
<path d="M3.75 13.5C4.164 13.5 4.5 13.836 4.5 14.25C4.5 14.664 4.164 15 3.75 15C3.336 15 3 14.664 3 14.25C3 13.836 3.336 13.5 3.75 13.5Z" fill="#5B6B7A"/>
<path d="M3.75 16.5C4.164 16.5 4.5 16.836 4.5 17.25C4.5 17.664 4.164 18 3.75 18C3.336 18 3 17.664 3 17.25C3 16.836 3.336 16.5 3.75 16.5Z" fill="#5B6B7A"/>
<path d="M6.75 13.5C7.164 13.5 7.5 13.836 7.5 14.25C7.5 14.664 7.164 15 6.75 15C6.336 15 6 14.664 6 14.25C6 13.836 6.336 13.5 6.75 13.5Z" fill="#5B6B7A"/>
<path d="M17.2501 21.0001C16.9996 21.0001 16.7656 20.8741 16.6261 20.6656L13.6261 16.1656C13.3966 15.8221 13.4896 15.3556 13.8346 15.1261C14.1751 14.8981 14.6431 14.9881 14.8741 15.3346L17.2501 18.8986L19.6261 15.3346C19.8571 14.9896 20.3236 14.8996 20.6656 15.1261C21.0091 15.3556 21.1036 15.8221 20.8741 16.1656L17.8741 20.6656C17.7346 20.8741 17.5006 21.0001 17.2501 21.0001Z" fill="#5B6B7A"/>
<path d="M18 10.575V6C18 4.3455 16.659 3 15.0045 3H15V0.75C15 0.336 14.664 0 14.25 0C13.836 0 13.5 0.336 13.5 0.75V3H4.5V0.75C4.5 0.336 4.164 0 3.75 0C3.336 0 3 0.336 3 0.75V3C1.3455 3 0 4.3455 0 6V18C0 19.6545 1.3455 21 3 21H11.64C12.8505 22.8075 14.91 24 17.25 24C20.9775 24 24 20.9775 24 17.25C24 13.779 21.3705 10.953 18 10.575ZM3 4.5V5.2455C3 5.6595 3.336 5.9955 3.75 5.9955C4.164 5.9955 4.5 5.6595 4.5 5.2455V4.5H13.4955V5.2455C13.4955 5.6595 13.8315 5.9955 14.2455 5.9955C14.6595 5.9955 14.9955 5.6595 14.9955 5.2455V4.5H15C15.828 4.5 16.5 5.172 16.5 6V7.5H1.5V6C1.5 5.172 2.172 4.5 3 4.5ZM1.5 18V9H16.5V10.575C13.1295 10.953 10.5 13.779 10.5 17.25C10.5 18.0435 10.662 18.7935 10.914 19.5H3C2.172 19.5 1.5 18.828 1.5 18ZM17.25 22.5C14.3505 22.5 12 20.1495 12 17.25C12 14.3505 14.3505 12 17.25 12C20.1495 12 22.5 14.3505 22.5 17.25C22.5 20.1495 20.1495 22.5 17.25 22.5Z" fill="#5B6B7A"/>
</g>
<defs>
<clipPath id="clip0_108_1315">
<rect width="24" height="24" fill="white"/>
</clipPath>
</defs>
</svg>
