<svg width="24" height="24" viewBox="0 0 24 24" fill="none" xmlns="http://www.w3.org/2000/svg">
<g clip-path="url(#clip0_102_729)">
<path d="M12.7498 3.00024H6.74976C6.33576 3.00024 5.99976 3.33624 5.99976 3.75024V9.75024C5.99976 10.1642 6.33576 10.5002 6.74976 10.5002H12.7498C13.1638 10.5002 13.4998 10.1642 13.4998 9.75024V3.75024C13.4998 3.33624 13.1638 3.00024 12.7498 3.00024ZM11.9998 9.00024H7.49976V4.50024H11.9998V9.00024Z" fill="#5B6B7A"/>
<path d="M22.2808 7.71474L19.2748 4.70874C18.9823 4.41624 18.5068 4.41624 18.2143 4.70874C17.9218 5.00124 17.9218 5.47674 18.2143 5.76924L20.9998 8.55474V17.2442C20.9998 17.6582 20.6623 17.9942 20.2498 17.9942C19.8373 17.9942 19.4998 17.6582 19.4998 17.2442V11.2442C19.4998 10.0037 18.4903 8.99424 17.2498 8.99424H16.4998V3.00024C16.4998 1.34574 15.1543 0.000244141 13.4998 0.000244141H5.99976C4.34526 0.000244141 2.99976 1.34574 2.99976 3.00024V22.5002H2.24976C1.83576 22.5002 1.49976 22.8362 1.49976 23.2502C1.49976 23.6642 1.83576 24.0002 2.24976 24.0002H3.74976H15.7498H17.2498C17.6638 24.0002 17.9998 23.6642 17.9998 23.2502C17.9998 22.8362 17.6638 22.5002 17.2498 22.5002H16.4998V10.4942H17.2498C17.6623 10.4942 17.9998 10.8302 17.9998 11.2442V17.2442C17.9998 18.4847 19.0093 19.4942 20.2498 19.4942C21.4903 19.4942 22.4998 18.4847 22.4998 17.2442V8.24424C22.4998 8.04474 22.4203 7.85424 22.2808 7.71474ZM4.49976 22.5002V3.00024C4.49976 2.17374 5.17176 1.50024 5.99976 1.50024H13.4998C14.3278 1.50024 14.9998 2.17374 14.9998 3.00024V22.5002H4.49976Z" fill="#5B6B7A"/>
</g>
<defs>
<clipPath id="clip0_102_729">
<rect width="24" height="24" fill="white" transform="translate(-0.000244141 0.000244141)"/>
</clipPath>
</defs>
</svg>
