<svg width="19" height="19" viewBox="0 0 19 19" fill="none" xmlns="http://www.w3.org/2000/svg">
<path d="M4.9456 12.3878C4.34942 11.5069 4.00041 10.4452 4.00041 9.30286C4.00041 6.26385 6.46752 3.79175 9.50041 3.79175C12.5333 3.79175 15.0004 6.26385 15.0004 9.30286C15.0004 10.4452 14.6514 11.5069 14.0552 12.3878C15.1154 13.0005 16.0614 13.8028 16.8069 14.7898C17.9589 13.2541 18.6671 11.3673 18.6671 9.30286C18.6671 4.23844 14.5546 0.117676 9.50041 0.117676C4.4462 0.117676 0.33374 4.23844 0.33374 9.30286C0.33374 11.3673 1.04194 13.2541 2.19393 14.7898C2.93938 13.8028 3.88538 13.0005 4.9456 12.3878Z" fill="#FF9D29"/>
<path d="M9.49957 14.814C7.65405 14.814 5.97356 15.754 4.96704 17.2379C6.30948 18.0112 7.84327 18.488 9.49957 18.488C11.1559 18.488 12.6897 18.0112 14.0321 17.2379C13.0256 15.754 11.3451 14.814 9.49957 14.814Z" fill="#FF9D29"/>
<path d="M9.50049 12.0585C11.0193 12.0585 12.2505 10.8248 12.2505 9.30292C12.2505 7.78107 11.0193 6.54736 9.50049 6.54736C7.98171 6.54736 6.75049 7.78107 6.75049 9.30292C6.75049 10.8248 7.98171 12.0585 9.50049 12.0585Z" fill="#FF9D29"/>
</svg>
