<svg width="24" height="24" viewBox="0 0 24 24" fill="none" xmlns="http://www.w3.org/2000/svg">
<g clip-path="url(#clip0_102_755)">
<path d="M11.9998 16.5002C10.3453 16.5002 8.99976 15.1547 8.99976 13.5002C8.99976 11.8457 10.3453 10.5002 11.9998 10.5002C13.6543 10.5002 14.9998 11.8457 14.9998 13.5002C14.9998 15.1547 13.6543 16.5002 11.9998 16.5002ZM11.9998 12.0002C11.1718 12.0002 10.4998 12.6722 10.4998 13.5002C10.4998 14.3282 11.1718 15.0002 11.9998 15.0002C12.8278 15.0002 13.4998 14.3282 13.4998 13.5002C13.4998 12.6722 12.8278 12.0002 11.9998 12.0002Z" fill="#5B6B7A"/>
<path d="M23.8903 10.4627C23.1343 4.56324 18.1048 0.000244141 11.9998 0.000244141C5.89476 0.000244141 0.865256 4.56324 0.109256 10.4627C0.0447559 10.9667 -0.000244141 11.4782 -0.000244141 12.0002C-0.000244141 12.3002 0.0237559 12.5927 0.0447559 12.8867C0.0627559 13.1327 0.0882559 13.3757 0.121256 13.6157C0.190256 14.1242 0.290756 14.6222 0.421256 15.1082C1.52676 19.2332 4.76676 22.4717 8.89026 23.5772C9.37626 23.7077 9.87426 23.8082 10.3828 23.8772C10.9138 23.9507 11.4508 24.0002 11.9998 24.0002C12.5488 24.0002 13.0858 23.9507 13.6168 23.8787C14.1253 23.8097 14.6233 23.7092 15.1093 23.5787C19.2343 22.4732 22.4728 19.2332 23.5783 15.1097C23.7088 14.6237 23.8093 14.1257 23.8783 13.6172C23.9113 13.3757 23.9368 13.1327 23.9548 12.8882C23.9758 12.5927 23.9998 12.3002 23.9998 12.0002C23.9998 11.4782 23.9548 10.9667 23.8903 10.4627ZM11.9998 1.50024C16.7038 1.50024 20.6953 4.60974 22.0273 8.88174C19.4668 7.08924 16.0393 6.00024 11.9998 6.00024C7.96026 6.00024 4.53276 7.08924 1.97226 8.88174C3.30426 4.60974 7.29576 1.50024 11.9998 1.50024ZM1.95426 15.0467C5.72226 15.2777 8.72376 18.2792 8.95476 22.0472C5.60976 21.0302 2.96976 18.3902 1.95426 15.0467ZM15.0463 22.0457C15.2773 18.2777 18.2788 15.2762 22.0468 15.0452C21.0298 18.3902 18.3898 21.0302 15.0463 22.0457ZM22.4998 12.0002C22.4998 12.5132 22.4503 13.0127 22.3783 13.5062C17.5048 13.5707 13.5703 17.5052 13.5058 22.3787C13.0123 22.4507 12.5128 22.5002 11.9998 22.5002C11.4868 22.5002 10.9873 22.4507 10.4938 22.3787C10.4293 17.5052 6.49476 13.5707 1.62126 13.5062C1.54926 13.0127 1.49976 12.5132 1.49976 12.0002C1.49976 11.7077 1.52076 11.4212 1.54326 11.1347C3.95976 8.87124 7.64526 7.50024 11.9998 7.50024C16.3543 7.50024 20.0398 8.87124 22.4563 11.1347C22.4788 11.4212 22.4998 11.7077 22.4998 12.0002Z" fill="#5B6B7A"/>
</g>
<defs>
<clipPath id="clip0_102_755">
<rect width="24" height="24" fill="white" transform="translate(-0.000244141 0.000244141)"/>
</clipPath>
</defs>
</svg>
