<svg width="50" height="50" viewBox="0 0 50 50" fill="none" xmlns="http://www.w3.org/2000/svg">
<path d="M0 0H34.6154L50 15.3846V50H0V0Z" fill="#020920"/>
<g clip-path="url(#clip0_102_1120)">
<path d="M24.9976 21.9952C26.655 21.9952 28.0029 20.6476 28.0029 18.9904C28.0029 17.3333 26.655 15.9856 24.9976 15.9856C23.3401 15.9856 21.9922 17.3333 21.9922 18.9904C21.9922 20.6476 23.3416 21.9952 24.9976 21.9952ZM24.9976 17.488C25.827 17.488 26.5002 18.1611 26.5002 18.9904C26.5002 19.8197 25.827 20.4928 24.9976 20.4928C24.1681 20.4928 23.4949 19.8197 23.4949 18.9904C23.4949 18.1611 24.1696 17.488 24.9976 17.488Z" fill="white"/>
<path d="M36.9892 36.0576L32.5112 22.536C32.421 22.2055 32.1205 21.9951 31.7899 21.9951H30.137C30.708 20.8082 31.0085 19.7566 31.0085 18.8251C31.0085 15.5949 28.3187 12.9807 24.9978 12.9807C21.6768 12.9807 18.987 15.5949 18.987 18.8251C18.987 19.7566 19.2876 20.8082 19.8586 21.9951H18.2657C17.9352 21.9951 17.6496 22.2055 17.5445 22.536L13.0063 36.0576C12.9462 36.283 12.9913 36.5234 13.1266 36.7187C13.2618 36.899 13.4872 37.0192 13.7276 37.0192H36.2679C36.5083 37.0192 36.7338 36.899 36.869 36.7187C37.0193 36.5234 37.0493 36.283 36.9892 36.0576ZM24.9978 14.4831C27.4772 14.4831 29.5058 16.4212 29.5058 18.8251C29.5058 19.7115 29.1302 20.7181 28.6042 21.7097C28.5591 21.7998 28.484 21.905 28.4389 21.9951C28.2135 22.3858 27.9881 22.7764 27.7327 23.152C27.6575 23.2722 27.5674 23.3773 27.4922 23.4975C26.5906 24.7746 25.5989 25.8713 24.9978 26.5023C24.4117 25.8713 23.42 24.7746 22.5033 23.4975C22.4282 23.3773 22.338 23.2722 22.2629 23.152C22.0074 22.7764 21.782 22.3858 21.5717 21.9951C21.5115 21.905 21.4514 21.7998 21.3913 21.7097C20.8654 20.7181 20.4897 19.7115 20.4897 18.8251C20.4897 16.4212 22.5183 14.4831 24.9978 14.4831ZM14.7344 35.5168L18.8217 23.4975H20.7001C20.8053 23.6628 20.9105 23.8431 21.0157 23.9933C22.0525 25.5258 23.2697 26.8779 23.9158 27.539C24.1863 27.8395 24.5921 28.0048 24.9978 28.0048C25.4035 28.0048 25.8092 27.8395 26.0797 27.539C26.7259 26.8779 27.943 25.5258 28.9799 23.9933C29.0851 23.8431 29.1903 23.6628 29.2955 23.4975H31.2339L35.2611 35.5168H14.7344Z" fill="white"/>
</g>
<defs>
<clipPath id="clip0_102_1120">
<rect width="24.0385" height="24.0385" fill="white" transform="translate(12.9807 12.9807)"/>
</clipPath>
</defs>
</svg>
