<svg width="50" height="50" viewBox="0 0 50 50" fill="none" xmlns="http://www.w3.org/2000/svg">
<path d="M0.000976562 0H34.6164L50.001 15.3846V50H0.000976562V0Z" fill="#020920"/>
<g clip-path="url(#clip0_102_1157)">
<path d="M25.001 20.4928C25.001 18.0078 22.9788 15.9856 20.4938 15.9856C18.0088 15.9856 15.9866 18.0078 15.9866 20.4928C15.9866 22.9778 18.0088 25 20.4938 25C22.9788 25 25.001 22.9778 25.001 20.4928ZM20.4938 23.4976C18.8366 23.4976 17.489 22.15 17.489 20.4928C17.489 18.8357 18.8366 17.488 20.4938 17.488C22.1509 17.488 23.4986 18.8357 23.4986 20.4928C23.4986 22.15 22.1509 23.4976 20.4938 23.4976Z" fill="white"/>
<path d="M30.2593 26.5024C28.7885 26.5024 27.3792 26.9396 26.2254 27.7028C24.8176 26.0246 22.7263 25 20.4937 25C16.3516 25 12.9817 28.3699 12.9817 32.512C12.9817 33.3413 13.6548 34.0144 14.4841 34.0144H25.0009H26.5033H35.5177C36.3471 34.0144 37.0201 33.3413 37.0201 32.512C37.0201 29.1977 33.9868 26.5024 30.2593 26.5024ZM25.0009 32.512H23.4985H14.4841C14.4841 29.1932 17.1749 26.5024 20.4937 26.5024C22.3432 26.5024 23.9823 27.3483 25.0805 28.6644C25.0971 28.6854 25.1121 28.7079 25.1286 28.729C25.4381 29.1091 25.7101 29.5222 25.9204 29.97C26.284 30.7437 26.5033 31.6001 26.5033 32.512H25.0009ZM28.0057 32.512C28.0057 31.4258 27.7623 30.3546 27.2801 29.3314C27.2185 29.1992 27.1509 29.0685 27.0802 28.9393C28.0027 28.3368 29.1295 28.0048 30.2593 28.0048C33.159 28.0048 35.5177 30.027 35.5177 32.512H28.0057Z" fill="white"/>
<path d="M34.0154 22.7465C34.0154 20.6717 32.3342 18.9905 30.2594 18.9905C28.1846 18.9905 26.5034 20.6717 26.5034 22.7465C26.5034 24.8213 28.1846 26.5025 30.2594 26.5025C32.3342 26.5025 34.0154 24.8213 34.0154 22.7465ZM30.2594 25.0001C29.0169 25.0001 28.0058 23.989 28.0058 22.7465C28.0058 21.504 29.0169 20.4929 30.2594 20.4929C31.5019 20.4929 32.513 21.504 32.513 22.7465C32.513 23.989 31.5019 25.0001 30.2594 25.0001Z" fill="white"/>
</g>
<defs>
<clipPath id="clip0_102_1157">
<rect width="24.0385" height="24.0385" fill="white" transform="translate(12.9817 12.9807)"/>
</clipPath>
</defs>
</svg>
