<svg width="50" height="50" viewBox="0 0 50 50" fill="none" xmlns="http://www.w3.org/2000/svg">
<path d="M0.000976562 0H34.6164L50.001 15.3846V50H0.000976562V0Z" fill="#020920"/>
<g clip-path="url(#clip0_102_1126)">
<path d="M25.0009 12.9807C18.3633 12.9807 12.9817 18.3623 12.9817 24.9999C12.9817 31.6376 18.3633 37.0192 25.0009 37.0192C31.6385 37.0192 37.0201 31.6376 37.0201 24.9999C37.0201 18.3623 31.6385 12.9807 25.0009 12.9807ZM25.0009 35.5168C19.2016 35.5168 14.4841 30.7992 14.4841 24.9999C14.4841 19.2007 19.2016 14.4831 25.0009 14.4831C30.8002 14.4831 35.5177 19.2007 35.5177 24.9999C35.5177 30.7992 30.8002 35.5168 25.0009 35.5168Z" fill="white"/>
<path d="M25.001 18.2392C25.4156 18.2392 25.7522 17.9026 25.7522 17.488V15.9856C25.7522 15.5709 25.4156 15.2344 25.001 15.2344C24.5863 15.2344 24.2498 15.5709 24.2498 15.9856V17.488C24.2498 17.9026 24.5863 18.2392 25.001 18.2392Z" fill="white"/>
<path d="M28.3813 19.145C28.5 19.2126 28.6292 19.2456 28.7569 19.2456C29.0168 19.2456 29.2692 19.1104 29.4089 18.87L30.1601 17.569C30.3674 17.2099 30.2442 16.7501 29.8852 16.5428C29.5261 16.3355 29.0664 16.4587 28.859 16.8178L28.1078 18.1188C27.899 18.4779 28.0222 18.9376 28.3813 19.145Z" fill="white"/>
<path d="M34.0153 24.2488H32.5129C32.0983 24.2488 31.7617 24.5853 31.7617 25C31.7617 25.4146 32.0983 25.7512 32.5129 25.7512H34.0153C34.43 25.7512 34.7665 25.4146 34.7665 25C34.7665 24.5853 34.43 24.2488 34.0153 24.2488Z" fill="white"/>
<path d="M33.183 28.8567L31.8819 28.1055C31.5229 27.8967 31.0631 28.0214 30.8558 28.3804C30.6485 28.7395 30.7717 29.1992 31.1307 29.4066L32.4318 30.1578C32.5505 30.2254 32.6797 30.2584 32.8074 30.2584C33.0673 30.2584 33.3197 30.1232 33.4595 29.8828C33.6668 29.5238 33.5436 29.064 33.183 28.8567Z" fill="white"/>
<path d="M21.1442 16.8178C20.9354 16.4572 20.4756 16.334 20.118 16.5428C19.759 16.7502 19.6358 17.2084 19.8431 17.569L20.5943 18.8701C20.734 19.1104 20.9864 19.2457 21.2449 19.2457C21.3726 19.2457 21.5018 19.2141 21.6205 19.145C21.9795 18.9377 22.1027 18.4779 21.8954 18.1189L21.1442 16.8178Z" fill="white"/>
<path d="M18.871 20.5935L17.57 19.8423C17.2094 19.6335 16.7511 19.7582 16.5438 20.1173C16.335 20.4763 16.4582 20.9361 16.8188 21.1434L18.1198 21.8946C18.2385 21.9637 18.3662 21.9953 18.4939 21.9953C18.7538 21.9953 19.0063 21.86 19.146 21.6197C19.3533 21.2606 19.2301 20.8008 18.871 20.5935Z" fill="white"/>
<path d="M18.2402 25C18.2402 24.5853 17.9036 24.2488 17.489 24.2488H15.9866C15.5719 24.2488 15.2354 24.5853 15.2354 25C15.2354 25.4146 15.5719 25.7512 15.9866 25.7512H17.489C17.9036 25.7512 18.2402 25.4146 18.2402 25Z" fill="white"/>
<path d="M18.1198 28.1055L16.8187 28.8567C16.4597 29.064 16.3365 29.5238 16.5438 29.8828C16.6835 30.1232 16.9359 30.2584 17.1958 30.2584C17.3235 30.2584 17.4527 30.2269 17.5714 30.1578L18.8725 29.4066C19.2316 29.1992 19.3548 28.7395 19.1475 28.3804C18.9371 28.0214 18.4759 27.8967 18.1198 28.1055Z" fill="white"/>
<path d="M25.001 27.6291C26.4509 27.6291 27.6302 26.4497 27.6302 24.9999C27.6302 24.7911 27.5987 24.5898 27.5521 24.3945L33.1801 21.1448C33.5392 20.9374 33.6624 20.4777 33.4551 20.1186C33.2462 19.758 32.785 19.6363 32.4289 19.8437L26.8009 23.0934C26.3292 22.6487 25.6981 22.3707 25.001 22.3707C23.5512 22.3707 22.3718 23.5501 22.3718 24.9999C22.3718 26.4497 23.5512 27.6291 25.001 27.6291ZM25.001 23.8731C25.623 23.8731 26.1278 24.3779 26.1278 24.9999C26.1278 25.6219 25.623 26.1267 25.001 26.1267C24.379 26.1267 23.8742 25.6219 23.8742 24.9999C23.8742 24.3779 24.379 23.8731 25.001 23.8731Z" fill="white"/>
<path d="M27.2545 31.0095H22.7473C22.3326 31.0095 21.9961 31.3461 21.9961 31.7607C21.9961 32.1754 22.3326 32.5119 22.7473 32.5119H27.2545C27.6692 32.5119 28.0057 32.1754 28.0057 31.7607C28.0057 31.3461 27.6692 31.0095 27.2545 31.0095Z" fill="white"/>
</g>
<defs>
<clipPath id="clip0_102_1126">
<rect width="24.0385" height="24.0385" fill="white" transform="translate(12.9817 12.9807)"/>
</clipPath>
</defs>
</svg>
