<svg width="50" height="50" viewBox="0 0 50 50" fill="none" xmlns="http://www.w3.org/2000/svg">
<path d="M0 0H34.6154L50 15.3846V50H0V0Z" fill="#FF9D29"/>
<g clip-path="url(#clip0_102_1131)">
<path d="M21.0246 24.468C20.7316 24.175 20.2554 24.175 19.9624 24.468C19.6694 24.761 19.6694 25.2372 19.9624 25.5302L24.4696 30.0374C24.6153 30.1847 24.8077 30.2583 25 30.2583C25.1923 30.2583 25.3846 30.1847 25.5318 30.0389C25.8248 29.746 25.8248 29.2697 25.5318 28.9767L21.0246 24.468Z" fill="white"/>
<path d="M36.7998 13.2002C36.5069 12.9072 36.0306 12.9072 35.7376 13.2002L34.3779 14.5599C34.2487 14.5268 34.121 14.4832 33.9873 14.4832H33.9828H25.3545C24.9504 14.4848 24.5102 14.6695 24.2247 14.955L13.4284 25.7513C13.1415 26.0382 12.9807 26.4274 12.9807 26.833C12.9807 27.2387 13.1415 27.6278 13.4284 27.9147L22.0838 36.5701C22.3828 36.8706 22.7749 37.0193 23.167 37.0193C23.5591 37.0193 23.9498 36.8706 24.2487 36.5716L35.045 25.7753C35.3305 25.4899 35.5168 25.0512 35.5168 24.647V16.0187C35.5168 15.882 35.4747 15.7528 35.4386 15.6236L36.7983 14.2639C37.0928 13.9694 37.0928 13.4947 36.7998 13.2002ZM33.9828 24.7131L23.1475 35.5079L14.4906 26.8135L25.2824 16.0217C25.3004 16.0082 25.3455 15.9887 25.3545 15.9857H32.9522L29.5177 19.4201C29.0609 19.1527 28.5426 18.9905 28.0032 18.9905C27.3497 18.9905 26.7262 19.1978 26.2034 19.5899C25.5603 20.0722 25.1442 20.7738 25.03 21.5686C24.9158 22.3634 25.1186 23.1551 25.5994 23.7966C26.1643 24.5509 27.0627 25.0001 28.0048 25.0001C28.6583 25.0001 29.2818 24.7927 29.8046 24.4006C30.4477 23.9198 30.8638 23.2167 30.978 22.4219C31.0757 21.7399 30.9269 21.0653 30.5814 20.4793L34.0144 17.0479V24.632C34.0114 24.6545 33.9933 24.6996 33.9828 24.7131ZM28.2241 21.7759C28.3713 21.9216 28.5636 21.9953 28.756 21.9953C28.9483 21.9953 29.1406 21.9216 29.2878 21.7759L29.4531 21.6107C29.6063 22.1861 29.411 22.8201 28.9062 23.1972C28.6343 23.4 28.3188 23.4977 28.0048 23.4977C27.548 23.4977 27.0973 23.2903 26.8013 22.8952C26.304 22.2311 26.4392 21.2906 27.1033 20.7933C27.3737 20.5905 27.6892 20.4929 28.0032 20.4929C28.1264 20.4929 28.2421 20.5454 28.3623 20.5755L28.2256 20.7122C27.9311 21.0067 27.9311 21.4814 28.2241 21.7759Z" fill="white"/>
</g>
<defs>
<clipPath id="clip0_102_1131">
<rect width="24.0385" height="24.0385" fill="white" transform="translate(12.9807 12.9807)"/>
</clipPath>
</defs>
</svg>
