<svg width="60" height="60" viewBox="0 0 60 60" fill="none" xmlns="http://www.w3.org/2000/svg">
<path d="M0.00146484 0H41.5399L60.0015 18.4615V60H0.00146484V0Z" fill="#020920"/>
<g clip-path="url(#clip0_102_652)">
<path d="M41.5327 19.1827H29.2983L23.7184 15.8347C23.4335 15.6634 23.1126 15.5769 22.7899 15.5769C22.5321 15.5769 22.2743 15.6328 22.0345 15.7428C21.4936 15.9934 21.1096 16.4946 21.0123 17.0823L20.6625 19.1827H19.1841C17.192 19.1827 15.5784 20.7963 15.5784 22.7884V42.6202C15.5784 43.6154 16.3861 44.4231 17.3813 44.4231H42.6216C43.6168 44.4231 44.4245 43.6154 44.4245 42.6202V22.0745C44.4245 20.4771 43.1301 19.1827 41.5327 19.1827ZM22.7899 17.3798L34.8097 24.5913H21.5874L22.7899 17.3798ZM18.4918 21.1262C18.7046 21.036 18.9389 20.9856 19.1841 20.9856H20.3614L19.7611 24.5913H19.1841C18.1907 24.5913 17.3813 23.7818 17.3813 22.7884C17.3813 22.0402 17.841 21.3984 18.4918 21.1262ZM42.6216 37.2115H38.1144C36.6216 37.2115 35.4101 36 35.4101 34.5072C35.4101 33.0144 36.6216 31.8029 38.1144 31.8029H42.6216V37.2115ZM42.6216 30H38.1144C35.6301 30 33.6072 32.0228 33.6072 34.5072C33.6072 36.9916 35.6301 39.0144 38.1144 39.0144H42.6216V40.8173V42.6202H17.3813V25.8948C17.9131 26.2031 18.5243 26.3942 19.1841 26.3942H19.46H42.6216V30ZM42.6216 24.5733V24.5913H38.3127L32.3037 20.9856H41.5327C42.1331 20.9856 42.6216 21.4741 42.6216 22.0745V24.5733Z" fill="white"/>
<path d="M38.1143 35.4086C38.6122 35.4086 39.0158 35.005 39.0158 34.5072C39.0158 34.0093 38.6122 33.6057 38.1143 33.6057C37.6165 33.6057 37.2129 34.0093 37.2129 34.5072C37.2129 35.005 37.6165 35.4086 38.1143 35.4086Z" fill="white"/>
</g>
<defs>
<clipPath id="clip0_102_652">
<rect width="28.8462" height="28.8462" fill="white" transform="translate(15.5784 15.5769)"/>
</clipPath>
</defs>
</svg>
