<svg width="60" height="60" viewBox="0 0 60 60" fill="none" xmlns="http://www.w3.org/2000/svg">
<path d="M0.000488281 0H41.5389L60.0005 18.4615V60H0.000488281V0Z" fill="#FF9D29"/>
<g clip-path="url(#clip0_102_286)">
<path d="M30.0004 22.7885L31.6716 26.3492L35.409 26.9207L32.7047 29.6917L33.3429 33.6058L30.0004 31.7578L26.6578 33.6058L27.296 29.6917L24.5917 26.9207L28.3291 26.3492L30.0004 22.7885ZM30.0004 20.9856C29.3008 20.9856 28.6662 21.3894 28.3687 22.0223L27.1067 24.7122L24.3195 25.1376C23.6506 25.2404 23.0971 25.7074 22.8826 26.3474C22.668 26.9874 22.8303 27.6959 23.3008 28.1791L25.3706 30.2993L24.8784 33.3155C24.7666 33.997 25.055 34.6821 25.6193 35.0805C25.9294 35.2987 26.2936 35.4087 26.6578 35.4087C26.9571 35.4087 27.2582 35.3348 27.5304 35.1833L30.0004 33.8185L32.4703 35.1833C32.7425 35.3348 33.0436 35.4087 33.3429 35.4087C33.7071 35.4087 34.0713 35.2987 34.3814 35.0805C34.9457 34.6821 35.2341 33.997 35.1224 33.3155L34.6302 30.2993L36.6999 28.1791C37.1722 27.6959 37.3345 26.9892 37.12 26.3474C36.9054 25.7055 36.3501 25.2386 35.6831 25.1376L32.8958 24.7122L31.6338 22.0223C31.3363 21.3894 30.6999 20.9856 30.0004 20.9856Z" fill="white"/>
<path d="M30.0004 17.3798L39.0148 20.5348V31.042C39.0148 33.3804 38.0251 35.5979 36.3159 37.0943L30.0004 42.6202L23.6849 37.0943C21.9758 35.5979 20.986 33.3804 20.986 31.042V20.5348L30.0004 17.3798ZM30.0004 15.5769C29.7985 15.5769 29.5984 15.6112 29.4055 15.6779L20.391 18.8329C19.6681 19.0871 19.1831 19.7686 19.1831 20.5348V31.042C19.1831 33.9068 20.391 36.6076 22.4986 38.4519L28.8141 43.9777C29.1531 44.2752 29.5767 44.4231 30.0004 44.4231C30.4241 44.4231 30.8478 44.2752 31.1885 43.9777L37.504 38.4519C39.6098 36.6076 40.8177 33.9068 40.8177 31.042V20.5348C40.8177 19.7686 40.3327 19.0871 39.6098 18.8329L30.5954 15.6779C30.4025 15.6112 30.2023 15.5769 30.0004 15.5769Z" fill="white"/>
</g>
<defs>
<clipPath id="clip0_102_286">
<rect width="28.8462" height="28.8462" fill="white" transform="translate(15.5774 15.5769)"/>
</clipPath>
</defs>
</svg>
