<svg width="462" height="405" viewBox="0 0 462 405" fill="none" xmlns="http://www.w3.org/2000/svg">
<path d="M461.092 190.342C461.273 193.025 461.394 195.723 461.455 198.433L460.455 198.456C460.485 199.801 460.5 201.149 460.5 202.5C460.5 203.851 460.485 205.199 460.455 206.544L461.455 206.567C461.394 209.277 461.273 211.975 461.092 214.658L460.094 214.591C459.913 217.28 459.672 219.955 459.371 222.615L460.365 222.727C460.061 225.422 459.696 228.101 459.273 230.764L458.285 230.607C457.863 233.268 457.38 235.912 456.84 238.538L457.82 238.739C457.275 241.391 456.671 244.024 456.009 246.638L455.04 246.393C454.38 249.001 453.662 251.59 452.888 254.159L453.846 254.447C453.066 257.037 452.229 259.607 451.336 262.154L450.392 261.824C449.503 264.362 448.558 266.878 447.559 269.372L448.487 269.744C447.483 272.252 446.423 274.738 445.31 277.2L444.399 276.788C443.292 279.237 442.133 281.661 440.921 284.062L441.814 284.512C440.597 286.923 439.328 289.309 438.008 291.67L437.135 291.182C435.824 293.526 434.463 295.845 433.052 298.137L433.904 298.661C432.49 300.959 431.027 303.23 429.516 305.474L428.686 304.915C427.187 307.142 425.64 309.34 424.047 311.511L424.853 312.102C423.256 314.277 421.614 316.423 419.927 318.54L419.145 317.916C417.471 320.016 415.753 322.086 413.991 324.125L414.748 324.779C412.985 326.82 411.179 328.832 409.331 330.811L408.6 330.129C406.77 332.09 404.898 334.02 402.987 335.918L403.691 336.628C401.779 338.527 399.826 340.395 397.834 342.229L397.157 341.494C395.183 343.312 393.171 345.099 391.121 346.851L391.771 347.611C389.721 349.364 387.635 351.084 385.512 352.77L384.89 351.987C382.789 353.655 380.653 355.289 378.483 356.889L379.077 357.694C376.908 359.292 374.706 360.856 372.471 362.385L371.906 361.56C369.691 363.074 367.444 364.554 365.165 365.998L365.7 366.843C363.423 368.286 361.114 369.694 358.775 371.065L358.269 370.202C355.955 371.559 353.61 372.88 351.237 374.165L351.713 375.044C349.345 376.326 346.948 377.57 344.524 378.778L344.078 377.883C341.676 379.079 339.248 380.238 336.793 381.36L337.209 382.27C334.756 383.39 332.278 384.473 329.775 385.517L329.39 384.594C326.914 385.628 324.414 386.623 321.891 387.58L322.245 388.515C319.728 389.469 317.187 390.385 314.625 391.262L314.301 390.316C311.762 391.184 309.201 392.015 306.62 392.805L306.913 393.762C304.334 394.551 301.735 395.302 299.116 396.013L298.854 395.047C296.268 395.749 293.661 396.412 291.036 397.035L291.267 398.008C288.648 398.63 286.011 399.212 283.355 399.754L283.155 398.774C280.525 399.31 277.878 399.807 275.214 400.264L275.383 401.25C272.728 401.704 270.057 402.119 267.37 402.493L267.232 401.503C264.579 401.873 261.91 402.202 259.227 402.491L259.334 403.485C256.657 403.774 253.965 404.022 251.26 404.229L251.184 403.231C248.506 403.436 245.815 403.601 243.112 403.724L243.158 404.723C240.473 404.846 237.777 404.928 235.069 404.969L235.054 403.969C233.706 403.99 232.354 404 231 404C229.647 404 228.295 403.99 226.947 403.969L226.932 404.969C224.224 404.928 221.527 404.846 218.843 404.723L218.889 403.724C216.185 403.601 213.495 403.436 210.817 403.231L210.741 404.229C208.036 404.022 205.344 403.774 202.667 403.485L202.774 402.491C200.091 402.202 197.422 401.873 194.769 401.503L194.631 402.493C191.944 402.119 189.273 401.704 186.618 401.249L186.786 400.264C184.123 399.807 181.475 399.31 178.845 398.774L178.646 399.754C175.99 399.212 173.353 398.63 170.734 398.008L170.965 397.035C168.34 396.412 165.733 395.749 163.147 395.047L162.885 396.013C160.266 395.302 157.667 394.551 155.088 393.761L155.381 392.805C152.8 392.015 150.239 391.184 147.7 390.316L147.376 391.262C144.814 390.385 142.273 389.469 139.756 388.515L140.11 387.58C137.587 386.623 135.086 385.628 132.611 384.594L132.226 385.517C129.723 384.473 127.245 383.39 124.792 382.27L125.208 381.36C122.753 380.238 120.325 379.079 117.923 377.883L117.477 378.778C115.053 377.57 112.656 376.325 110.288 375.044L110.764 374.164C108.391 372.88 106.046 371.559 103.732 370.202L103.226 371.065C100.887 369.694 98.5782 368.286 96.3007 366.843L96.836 365.998C94.5571 364.554 92.3098 363.074 90.0949 361.56L89.5304 362.385C87.2951 360.856 85.0927 359.292 82.9244 357.694L83.5177 356.889C81.3475 355.289 79.2115 353.655 77.1109 351.987L76.4891 352.77C74.3664 351.084 72.2796 349.364 70.2299 347.611L70.8798 346.851C68.8303 345.098 66.8181 343.312 64.8442 341.494L64.1666 342.229C62.1751 340.395 60.2224 338.527 58.3097 336.628L59.0143 335.918C57.1026 334.02 55.231 332.09 53.4008 330.129L52.6697 330.811C50.8218 328.832 49.0158 326.82 47.2528 324.779L48.0097 324.125C46.2482 322.086 44.53 320.015 42.8563 317.916L42.0744 318.54C40.387 316.423 38.7446 314.277 37.1482 312.102L37.9543 311.511C36.3612 309.34 34.8143 307.142 33.3148 304.915L32.4853 305.474C30.9743 303.23 29.5112 300.959 28.0971 298.661L28.9488 298.137C27.5382 295.845 26.1769 293.526 24.8659 291.181L23.9931 291.67C22.6733 289.309 21.4043 286.923 20.1873 284.512L21.08 284.062C19.8684 281.661 18.7086 279.237 17.602 276.788L16.6907 277.2C15.5779 274.738 14.5184 272.252 13.5135 269.744L14.4418 269.372C13.4427 266.878 12.498 264.361 11.6088 261.824L10.665 262.154C9.77228 259.606 8.93523 257.037 8.15512 254.447L9.11262 254.159C8.33874 251.59 7.62122 249.001 6.96128 246.393L5.99183 246.638C5.33031 244.024 4.72632 241.39 4.18107 238.739L5.16057 238.538C4.6205 235.912 4.13839 233.268 3.71546 230.607L2.72786 230.764C2.30456 228.101 1.9402 225.422 1.63598 222.727L2.62967 222.615C2.32943 219.955 2.08809 217.28 1.90682 214.591L0.909081 214.658C0.728211 211.975 0.606818 209.277 0.546043 206.567L1.54579 206.544C1.51564 205.199 1.50049 203.851 1.50049 202.5C1.50049 201.149 1.51564 199.801 1.5458 198.456L0.546046 198.433C0.606823 195.723 0.728219 193.025 0.909092 190.342L1.90683 190.409C2.0881 187.72 2.32944 185.045 2.62969 182.385L1.636 182.273C1.94022 179.578 2.30458 176.899 2.72788 174.236L3.71548 174.393C4.13842 171.732 4.62052 169.088 5.1606 166.462L4.18109 166.261C4.72634 163.609 5.33034 160.976 5.99186 158.362L6.96131 158.607C7.62125 155.999 8.33877 153.41 9.11265 150.841L8.15515 150.553C8.93526 147.963 9.77231 145.394 10.665 142.846L11.6088 143.176C12.498 140.639 13.4427 138.122 14.4418 135.628L13.5136 135.256C14.5184 132.748 15.5779 130.262 16.6908 127.8L17.602 128.212C18.7087 125.763 19.8684 123.339 21.08 120.938L20.1873 120.488C21.4043 118.077 22.6734 115.691 23.9931 113.33L24.866 113.818C26.1769 111.474 27.5383 109.155 28.9488 106.863L28.0971 106.339C29.5112 104.041 30.9743 101.77 32.4854 99.5261L33.3148 100.085C34.8143 97.8584 36.3612 95.6596 37.9543 93.4893L37.1482 92.8976C38.7446 90.7229 40.3871 88.5768 42.0745 86.4604L42.8564 87.0838C44.5301 84.9845 46.2482 82.9145 48.0097 80.8748L47.2528 80.2212C49.0158 78.1797 50.8218 76.1685 52.6697 74.1886L53.4008 74.8709C55.231 72.91 57.1026 70.9799 59.0143 69.0816L58.3097 68.372C60.2225 66.4727 62.1751 64.6053 64.1666 62.7706L64.8442 63.5061C66.8181 61.6876 68.8304 59.9015 70.8799 58.1487L70.2299 57.3887C72.2797 55.6357 74.3664 53.9159 76.4891 52.2303L77.111 53.0134C79.2116 51.3454 81.3475 49.7109 83.5177 48.1111L82.9244 47.3061C85.0928 45.7076 87.2951 44.1436 89.5304 42.6149L90.0949 43.4403C92.3098 41.9255 94.5572 40.4457 96.836 39.0016L96.3007 38.1569C98.5783 36.7136 100.887 35.3059 103.226 33.9349L103.732 34.7976C106.046 33.4406 108.391 32.1196 110.764 30.8355L110.288 29.956C112.656 28.6745 115.053 27.4296 117.477 26.2221L117.923 27.1172C120.325 25.9209 122.753 24.7615 125.208 23.64L124.792 22.7304C127.245 21.61 129.723 20.5271 132.226 19.4827L132.611 20.4056C135.086 19.3724 137.587 18.3771 140.11 17.4203L139.756 16.4853C142.273 15.531 144.814 14.615 147.376 13.7381L147.7 14.6843C150.239 13.8156 152.8 12.9854 155.381 12.1946L155.088 11.2385C157.667 10.4488 160.266 9.69817 162.885 8.98747L163.147 9.95257C165.733 9.25062 168.34 8.58776 170.965 7.96475L170.734 6.99178C173.353 6.37016 175.99 5.78808 178.646 5.24631L178.846 6.22612C181.475 5.68951 184.123 5.19259 186.787 4.73613L186.618 3.7505C189.273 3.29554 191.944 2.88062 194.631 2.50649L194.769 3.49693C197.422 3.12742 200.091 2.79784 202.774 2.50891L202.667 1.51466C205.344 1.22635 208.036 0.978373 210.741 0.771439L210.817 1.76853C213.495 1.56367 216.186 1.39919 218.889 1.27578L218.843 0.276825C221.528 0.154283 224.224 0.0720854 226.932 0.0309107L226.947 1.0308C228.295 1.01029 229.647 1 231 1C232.354 1 233.706 1.01029 235.054 1.0308L235.069 0.0309128C237.777 0.0720888 240.473 0.154287 243.158 0.27683L243.112 1.27579C245.815 1.3992 248.506 1.56368 251.184 1.76853L251.26 0.771446C253.965 0.978382 256.657 1.22636 259.334 1.51467L259.227 2.50892C261.91 2.79785 264.579 3.12743 267.232 3.49694L267.37 2.5065C270.057 2.88064 272.728 3.29556 275.383 3.75052L275.215 4.73615C277.878 5.19261 280.526 5.68953 283.155 6.22614L283.355 5.24633C286.011 5.7881 288.648 6.37018 291.267 6.9918L291.036 7.96477C293.661 8.58778 296.268 9.25064 298.854 9.95258L299.116 8.98748C301.735 9.69819 304.334 10.4488 306.913 11.2385L306.62 12.1947C309.201 12.9855 311.762 13.8156 314.301 14.6843L314.625 13.7381C317.187 14.615 319.728 15.531 322.245 16.4853L321.891 17.4204C324.414 18.3771 326.915 19.3724 329.39 20.4056L329.775 19.4827C332.278 20.5271 334.756 21.61 337.209 22.7304L336.793 23.64C339.248 24.7616 341.676 25.9209 344.078 27.1172L344.524 26.2221C346.948 27.4296 349.345 28.6745 351.713 29.956L351.237 30.8355C353.61 32.1196 355.955 33.4406 358.269 34.7976L358.775 33.9349C361.114 35.306 363.423 36.7136 365.7 38.1569L365.165 39.0016C367.444 40.4457 369.691 41.9256 371.906 43.4403L372.471 42.6149C374.706 44.1436 376.908 45.7076 379.077 47.3062L378.483 48.1111C380.653 49.7109 382.789 51.3454 384.89 53.0134L385.512 52.2303C387.635 53.9159 389.721 55.6357 391.771 57.3887L391.121 58.1487C393.171 59.9015 395.183 61.6876 397.157 63.5061L397.834 62.7706C399.826 64.6053 401.779 66.4727 403.691 68.372L402.987 69.0816C404.898 70.9799 406.77 72.91 408.6 74.8709L409.331 74.1886C411.179 76.1685 412.985 78.1797 414.748 80.2212L413.991 80.8748C415.753 82.9145 417.471 84.9845 419.145 87.0838L419.927 86.4604C421.614 88.5768 423.256 90.7229 424.853 92.8976L424.047 93.4893C425.64 95.6596 427.187 97.8585 428.686 100.085L429.516 99.5261C431.027 101.77 432.49 104.041 433.904 106.339L433.052 106.863C434.463 109.155 435.824 111.474 437.135 113.819L438.008 113.33C439.328 115.691 440.597 118.077 441.814 120.488L440.921 120.938C442.133 123.339 443.292 125.763 444.399 128.212L445.31 127.8C446.423 130.262 447.483 132.748 448.487 135.256L447.559 135.628C448.558 138.122 449.503 140.639 450.392 143.176L451.336 142.846C452.229 145.394 453.066 147.963 453.846 150.553L452.888 150.841C453.662 153.41 454.38 155.999 455.04 158.607L456.009 158.362C456.671 160.976 457.275 163.61 457.82 166.261L456.84 166.462C457.38 169.088 457.863 171.732 458.286 174.393L459.273 174.236C459.696 176.899 460.061 179.578 460.365 182.273L459.371 182.385C459.672 185.045 459.913 187.72 460.094 190.409L461.092 190.342Z" stroke="url(#paint0_linear_102_1180)" stroke-width="2" stroke-dasharray="8 8"/>
<circle cx="8.00049" cy="154.5" r="4.5" fill="#FA1D1D"/>
<circle cx="355" cy="32.5" r="4.5" fill="#FA1D1D"/>
<circle opacity="0.9" cx="454" cy="250.5" r="4.5" fill="#FA1D1D"/>
<defs>
<linearGradient id="paint0_linear_102_1180" x1="231" y1="0" x2="231.758" y2="529" gradientUnits="userSpaceOnUse">
<stop stop-color="#FA1D1D"/>
<stop offset="1" stop-color="#FA1D1D" stop-opacity="0"/>
</linearGradient>
</defs>
</svg>
