<svg width="24" height="24" viewBox="0 0 24 24" fill="none" xmlns="http://www.w3.org/2000/svg">
<g clip-path="url(#clip0_102_732)">
<path d="M22.4248 10.8602L16.0048 6.27024C14.5498 5.13024 12.7348 4.50024 10.9048 4.50024H2.99976C2.68476 4.50024 2.41476 4.69524 2.29476 4.98024C2.26476 5.08524 1.37976 7.39524 1.13976 8.91024C0.854756 10.6052 0.779756 11.8652 0.764756 12.4202L0.224756 12.9752C0.0747559 13.1102 -0.000244141 13.3052 -0.000244141 13.5002V16.5002C-0.000244141 18.1502 1.34976 19.5002 2.99976 19.5002C4.10976 19.5002 5.06976 18.9002 5.59476 18.0002H18.4048C18.9298 18.9002 19.8898 19.5002 20.9998 19.5002C22.6498 19.5002 23.9998 18.1502 23.9998 16.5002V13.9052C23.9998 12.7052 23.4148 11.5652 22.4248 10.8602ZM6.74976 6.00024H10.9048C12.4048 6.00024 13.8898 6.51024 15.1048 7.47024L18.2998 9.75024H7.49976C7.07976 9.75024 6.74976 9.42024 6.74976 9.00024V6.00024ZM1.49976 16.5002C1.49976 16.3952 1.51476 16.3052 1.52976 16.2152C1.66476 15.5252 2.27976 15.0002 2.99976 15.0002C3.82476 15.0002 4.49976 15.6752 4.49976 16.5002C4.49976 17.3252 3.82476 18.0002 2.99976 18.0002C2.17476 18.0002 1.49976 17.3252 1.49976 16.5002ZM5.99976 16.5002C5.99976 14.8352 4.64976 13.5002 2.99976 13.5002C2.45976 13.5002 1.93476 13.6502 1.49976 13.9052V13.8152L2.02476 13.2752C2.17476 13.1402 2.24976 12.9452 2.24976 12.7502C2.24976 12.7352 2.26476 11.2952 2.60976 9.15024C2.77476 8.17524 3.25476 6.73524 3.52476 6.00024H5.24976V9.00024C5.24976 10.2452 6.25476 11.2502 7.49976 11.2502H20.3998L21.5548 12.0902C22.1548 12.5102 22.4998 13.1852 22.4998 13.9052C22.0648 13.6502 21.5398 13.5002 20.9998 13.5002C19.3498 13.5002 17.9998 14.8352 17.9998 16.5002H5.99976ZM19.4998 16.5002C19.4998 15.6752 20.1748 15.0002 20.9998 15.0002C21.7198 15.0002 22.3348 15.5252 22.4698 16.2152C22.4848 16.3052 22.4998 16.3952 22.4998 16.5002C22.4998 17.3252 21.8248 18.0002 20.9998 18.0002C20.1748 18.0002 19.4998 17.3252 19.4998 16.5002Z" fill="#5B6B7A"/>
<path d="M9.74976 12.0002H8.24976C7.83576 12.0002 7.49976 12.3362 7.49976 12.7502C7.49976 13.1642 7.83576 13.5002 8.24976 13.5002H9.74976C10.1638 13.5002 10.4998 13.1642 10.4998 12.7502C10.4998 12.3362 10.1638 12.0002 9.74976 12.0002Z" fill="#5B6B7A"/>
</g>
<defs>
<clipPath id="clip0_102_732">
<rect width="24" height="24" fill="white" transform="translate(-0.000244141 0.000244141)"/>
</clipPath>
</defs>
</svg>
