<svg width="132" height="20" viewBox="0 0 132 20" fill="none" xmlns="http://www.w3.org/2000/svg">
<path d="M10.001 0L12.2461 6.90983H19.5115L13.6337 11.1803L15.8788 18.0902L10.001 13.8197L4.12312 18.0902L6.36826 11.1803L0.490412 6.90983H7.75584L10.001 0Z" fill="#FF9D29"/>
<path d="M38.001 0L40.2461 6.90983H47.5115L41.6337 11.1803L43.8788 18.0902L38.001 13.8197L32.1231 18.0902L34.3683 11.1803L28.4904 6.90983H35.7558L38.001 0Z" fill="#FF9D29"/>
<path d="M66.001 0L68.2461 6.90983H75.5115L69.6337 11.1803L71.8788 18.0902L66.001 13.8197L60.1231 18.0902L62.3683 11.1803L56.4904 6.90983H63.7558L66.001 0Z" fill="#FF9D29"/>
<path d="M94.001 0L96.2461 6.90983H103.512L97.6337 11.1803L99.8788 18.0902L94.001 13.8197L88.1231 18.0902L90.3683 11.1803L84.4904 6.90983H91.7558L94.001 0Z" fill="#FF9D29"/>
<path d="M122.001 0L124.246 6.90983H131.512L125.634 11.1803L127.879 18.0902L122.001 13.8197L116.123 18.0902L118.368 11.1803L112.49 6.90983H119.756L122.001 0Z" fill="#FF9D29"/>
</svg>
