<svg width="24" height="24" viewBox="0 0 24 24" fill="none" xmlns="http://www.w3.org/2000/svg">
<g clip-path="url(#clip0_102_735)">
<path d="M11.9998 0.000244141C5.37276 0.000244141 -0.000244141 5.37324 -0.000244141 12.0002C-0.000244141 18.6272 5.37276 24.0002 11.9998 24.0002C18.6268 24.0002 23.9998 18.6272 23.9998 12.0002C23.9998 5.37324 18.6268 0.000244141 11.9998 0.000244141ZM11.9998 22.5002C6.20976 22.5002 1.49976 17.7902 1.49976 12.0002C1.49976 6.21024 6.20976 1.50024 11.9998 1.50024C17.7898 1.50024 22.4998 6.21024 22.4998 12.0002C22.4998 17.7902 17.7898 22.5002 11.9998 22.5002Z" fill="#5B6B7A"/>
<path d="M19.8088 7.54524C19.8013 7.53024 19.8013 7.51524 19.7938 7.50024C19.7833 7.48224 19.7668 7.47324 19.7548 7.45674C18.1903 4.79574 15.3043 3.00024 11.9998 3.00024C7.03626 3.00024 2.99976 7.03674 2.99976 12.0002C2.99976 13.7552 3.50526 15.4562 4.46226 16.9202C4.60626 17.1407 4.84626 17.2607 5.09076 17.2607C5.23176 17.2607 5.37276 17.2217 5.50026 17.1377C5.84676 16.9112 5.94426 16.4462 5.71776 16.0997C4.92126 14.8802 4.49976 13.4627 4.49976 12.0002C4.49976 7.86474 7.86426 4.50024 11.9998 4.50024C14.5003 4.50024 16.7053 5.74224 18.0688 7.63074L13.4518 10.2962C13.0588 9.96024 12.5563 9.75024 11.9998 9.75024C10.7593 9.75024 9.74976 10.7597 9.74976 12.0002C9.74976 13.2407 10.7593 14.2502 11.9998 14.2502C13.2403 14.2502 14.2498 13.2407 14.2498 12.0002C14.2498 11.8607 14.2333 11.7242 14.2078 11.5907L18.8233 8.92674C19.2493 9.86724 19.4998 10.9022 19.4998 12.0002C19.4998 13.4597 19.0798 14.8742 18.2863 16.0907C18.0598 16.4372 18.1588 16.9022 18.5053 17.1287C18.8488 17.3537 19.3153 17.2547 19.5433 16.9097C20.4958 15.4487 20.9998 13.7507 20.9998 12.0002C20.9998 10.3787 20.5633 8.86074 19.8088 7.54524ZM11.9998 12.7502C11.5858 12.7502 11.2498 12.4142 11.2498 12.0002C11.2498 11.5862 11.5858 11.2502 11.9998 11.2502C12.4138 11.2502 12.7498 11.5862 12.7498 12.0002C12.7498 12.4142 12.4138 12.7502 11.9998 12.7502Z" fill="#5B6B7A"/>
<path d="M14.2498 18.0002H9.74976C9.33576 18.0002 8.99976 18.3362 8.99976 18.7502C8.99976 19.1642 9.33576 19.5002 9.74976 19.5002H14.2498C14.6638 19.5002 14.9998 19.1642 14.9998 18.7502C14.9998 18.3362 14.6638 18.0002 14.2498 18.0002Z" fill="#5B6B7A"/>
</g>
<defs>
<clipPath id="clip0_102_735">
<rect width="24" height="24" fill="white" transform="translate(-0.000244141 0.000244141)"/>
</clipPath>
</defs>
</svg>
