<svg width="21" height="21" viewBox="0 0 21 21" fill="none" xmlns="http://www.w3.org/2000/svg">
<path d="M10.5005 0.280762C4.98646 0.280762 0.500488 4.76673 0.500488 10.2808C0.500488 15.7948 4.98646 20.2808 10.5005 20.2808C16.0145 20.2808 20.5005 15.7948 20.5005 10.2808C20.5005 4.76673 16.0145 0.280762 10.5005 0.280762ZM13.8705 13.6508C13.5172 14.0041 12.9348 14.0006 12.585 13.6508L9.85773 10.9235C9.68728 10.7531 9.5914 10.5218 9.5914 10.2808V4.82622C9.5914 4.32417 9.99844 3.91713 10.5005 3.91713C11.0025 3.91713 11.4096 4.32417 11.4096 4.82622V9.90434L13.8705 12.3653C14.2256 12.7203 14.2256 13.2954 13.8705 13.6508Z" fill="#FF9D29"/>
</svg>
