<svg width="38" height="38" viewBox="0 0 38 38" fill="none" xmlns="http://www.w3.org/2000/svg">
<g clip-path="url(#clip0_6018_180)">
<path d="M38 19C38 17.1238 37.7388 15.3425 37.24 13.6325L34.4613 12.8962C34.0812 11.8987 33.5825 10.9488 33.0125 10.0463L36.195 10.9013C35.1975 8.76375 33.7962 6.86375 32.11 5.24875L29.3313 5.985C28.5 5.32 27.5975 4.72625 26.6475 4.25125L29.83 3.39625C27.93 2.06625 25.7925 1.0925 23.465 0.5225L21.4462 2.565C20.6625 2.4225 19.8312 2.375 19 2.375C18.7388 2.375 18.4775 2.375 18.2162 2.4225L20.5912 0.07125C20.0688 0.02375 19.5462 0 19 0C17.1238 0 15.3425 0.26125 13.6325 0.76L12.8962 3.53875C11.8987 3.91875 10.9488 4.4175 10.0463 4.9875L10.9013 1.805C8.76375 2.8025 6.86375 4.20375 5.24875 5.89L5.985 8.66875C5.32 9.5 4.72625 10.4025 4.25125 11.3525L3.39625 8.17C2.09 10.0463 1.0925 12.2075 0.5225 14.5113L2.58875 16.5775C2.44625 17.3612 2.375 18.1688 2.375 19C2.375 19.2612 2.375 19.5225 2.4225 19.7838L0.07125 17.4325C0.02375 17.955 0 18.4775 0 19C0 20.8525 0.26125 22.6575 0.76 24.3438L3.53875 25.08C3.91875 26.1013 4.4175 27.0513 4.9875 27.9538L1.805 27.0987C2.8025 29.2362 4.20375 31.1362 5.89 32.7513L8.66875 32.015C9.5 32.68 10.4025 33.2738 11.3525 33.7487L8.17 34.6037C10.0463 35.91 12.2075 36.9075 14.5113 37.4775L16.5775 35.435C17.3612 35.5537 18.1688 35.625 19 35.625C19.2612 35.625 19.5225 35.625 19.7838 35.5775L17.4325 37.9287C17.955 37.9762 18.4775 38 19 38C20.8525 38 22.6575 37.7388 24.3438 37.24L25.08 34.4613C26.1013 34.0812 27.0513 33.5825 27.9538 33.0125L27.0987 36.195C29.2362 35.1975 31.1362 33.7962 32.7513 32.11L31.9913 29.355C32.6562 28.5237 33.25 27.6213 33.7487 26.6475L34.6037 29.83C35.91 27.9538 36.9075 25.7925 37.4775 23.4888L35.435 21.4462C35.5537 20.6625 35.625 19.8312 35.625 19C35.625 18.7388 35.625 18.4775 35.5775 18.2162L37.9287 20.5675C37.9762 20.045 38 19.5225 38 19ZM19 28.5C13.7513 28.5 9.5 24.2488 9.5 19C9.5 13.7513 13.7513 9.5 19 9.5C24.2488 9.5 28.5 13.7513 28.5 19C28.5 24.2488 24.2488 28.5 19 28.5Z" fill="#020920"/>
<path d="M19 11.875C15.0812 11.875 11.875 15.0812 11.875 19C11.875 22.9187 15.0812 26.125 19 26.125C22.9187 26.125 26.125 22.9187 26.125 19C26.125 15.0812 22.9187 11.875 19 11.875ZM15.2475 19.0238C14.63 18.8338 14.2737 18.145 14.4875 17.5275C14.6775 16.91 15.3663 16.5775 15.9837 16.7675C16.6013 16.9812 16.9338 17.6463 16.7438 18.2638C16.53 18.8812 15.865 19.2375 15.2475 19.0238ZM17.86 22.5863C17.48 23.1088 16.7438 23.2275 16.1975 22.8475C15.675 22.4675 15.5563 21.7075 15.9363 21.185C16.34 20.6625 17.0762 20.5438 17.5987 20.9238C18.145 21.3038 18.2638 22.04 17.86 22.5863ZM19 16.625C18.335 16.625 17.8125 16.1025 17.8125 15.4375C17.8125 14.7725 18.335 14.25 19 14.25C19.665 14.25 20.1875 14.7725 20.1875 15.4375C20.1875 16.1025 19.665 16.625 19 16.625ZM21.8025 22.8475C21.2563 23.2275 20.52 23.1088 20.14 22.5863C19.7362 22.04 19.855 21.3038 20.4013 20.9238C20.9237 20.5438 21.66 20.6625 22.0638 21.185C22.4437 21.7075 22.325 22.4675 21.8025 22.8475ZM22.7525 19.0238C22.135 19.2375 21.47 18.8812 21.2562 18.2638C21.0662 17.6463 21.3988 16.9812 22.0163 16.7675C22.6338 16.5775 23.3225 16.91 23.5125 17.5275C23.7262 18.145 23.37 18.8338 22.7525 19.0238Z" fill="#FA1D1D"/>
</g>
<defs>
<clipPath id="clip0_6018_180">
<rect width="38" height="38" fill="white"/>
</clipPath>
</defs>
</svg>
