<svg width="39" height="39" viewBox="0 0 39 39" fill="none" xmlns="http://www.w3.org/2000/svg">
<g clip-path="url(#clip0_6112_264)">
<path d="M38.5005 19.2825C38.5005 17.4025 38.2392 15.6176 37.7405 13.9042L34.9617 13.1664C34.5817 12.1669 34.083 11.215 33.513 10.3107L36.6955 11.1674C35.698 9.0256 34.2967 7.12176 32.6105 5.50349L29.8317 6.24123C29.0005 5.57489 28.098 4.97994 27.148 4.50398L30.3305 3.64725C28.4305 2.31456 26.293 1.33885 23.9655 0.767696L21.9467 2.81432C21.163 2.67153 20.3317 2.62394 19.5005 2.62394C19.2392 2.62394 18.978 2.62394 18.7167 2.67153L21.0917 0.315535C20.5692 0.267939 20.0467 0.244141 19.5005 0.244141C17.6242 0.244141 15.843 0.505918 14.133 1.00568L13.3967 3.79004C12.3992 4.17081 11.4492 4.67056 10.5467 5.24172L11.4017 2.05279C9.26424 3.0523 7.36424 4.45638 5.74924 6.14604L6.48549 8.9304C5.82049 9.76333 5.22674 10.6677 4.75174 11.6196L3.89674 8.43065C2.59049 10.3107 1.59299 12.4763 1.02299 14.7847L3.08924 16.8551C2.94674 17.6405 2.87549 18.4496 2.87549 19.2825C2.87549 19.5443 2.87549 19.8061 2.92299 20.0679L0.571738 17.7119C0.524238 18.2354 0.500488 18.759 0.500488 19.2825C0.500488 21.1388 0.761738 22.9474 1.26049 24.6371L4.03924 25.3748C4.41924 26.3981 4.91799 27.35 5.48799 28.2544L2.30549 27.3976C3.30299 29.5395 4.70424 31.4433 6.39049 33.0616L9.16924 32.3238C10.0005 32.9902 10.903 33.5851 11.853 34.0611L8.67049 34.9178C10.5467 36.2267 12.708 37.2262 15.0117 37.7974L17.078 35.7507C17.8617 35.8697 18.6692 35.9411 19.5005 35.9411C19.7617 35.9411 20.023 35.9411 20.2842 35.8935L17.933 38.2495C18.4555 38.2971 18.978 38.3209 19.5005 38.3209C21.353 38.3209 23.158 38.0591 24.8442 37.5594L25.5805 34.775C26.6017 34.3942 27.5517 33.8945 28.4542 33.3233L27.5992 36.5123C29.7367 35.5127 31.6367 34.1087 33.2517 32.419L32.4917 29.6584C33.1567 28.8255 33.7505 27.9212 34.2492 26.9455L35.1042 30.1344C36.4105 28.2544 37.408 26.0887 37.978 23.7803L35.9355 21.7337C36.0542 20.9484 36.1255 20.1155 36.1255 19.2825C36.1255 19.0207 36.1255 18.759 36.078 18.4972L38.4292 20.8532C38.4767 20.3296 38.5005 19.8061 38.5005 19.2825ZM19.5005 28.8017C14.2517 28.8017 10.0005 24.5419 10.0005 19.2825C10.0005 14.0232 14.2517 9.76333 19.5005 9.76333C24.7492 9.76333 29.0005 14.0232 29.0005 19.2825C29.0005 24.5419 24.7492 28.8017 19.5005 28.8017Z" fill="white"/>
<path d="M19.5005 12.1431C15.5817 12.1431 12.3755 15.3558 12.3755 19.2825C12.3755 23.2091 15.5817 26.4219 19.5005 26.4219C23.4192 26.4219 26.6255 23.2091 26.6255 19.2825C26.6255 15.3558 23.4192 12.1431 19.5005 12.1431ZM15.748 19.3063C15.1305 19.1159 14.7742 18.4257 14.988 17.807C15.178 17.1882 15.8667 16.8551 16.4842 17.0454C17.1017 17.2596 17.4342 17.926 17.2442 18.5447C17.0305 19.1635 16.3655 19.5204 15.748 19.3063ZM18.3605 22.876C17.9805 23.3995 17.2442 23.5185 16.698 23.1377C16.1755 22.757 16.0567 21.9954 16.4367 21.4719C16.8405 20.9483 17.5767 20.8293 18.0992 21.2101C18.6455 21.5909 18.7642 22.3286 18.3605 22.876ZM19.5005 16.9027C18.8355 16.9027 18.313 16.3791 18.313 15.7128C18.313 15.0464 18.8355 14.5229 19.5005 14.5229C20.1655 14.5229 20.688 15.0464 20.688 15.7128C20.688 16.3791 20.1655 16.9027 19.5005 16.9027ZM22.303 23.1377C21.7567 23.5185 21.0205 23.3995 20.6405 22.876C20.2367 22.3286 20.3555 21.5909 20.9017 21.2101C21.4242 20.8293 22.1605 20.9483 22.5642 21.4719C22.9442 21.9954 22.8255 22.757 22.303 23.1377ZM23.253 19.3063C22.6355 19.5204 21.9705 19.1635 21.7567 18.5447C21.5667 17.926 21.8992 17.2596 22.5167 17.0454C23.1342 16.8551 23.823 17.1882 24.013 17.807C24.2267 18.4257 23.8705 19.1159 23.253 19.3063Z" fill="#FA1D1D"/>
</g>
<defs>
<clipPath id="clip0_6112_264">
<rect width="38" height="38.0768" fill="white" transform="translate(0.500488 0.244141)"/>
</clipPath>
</defs>
</svg>
