<svg width="81" height="60" viewBox="0 0 81 60" fill="none" xmlns="http://www.w3.org/2000/svg">
<path d="M76.6936 39.907C75.6471 39.907 74.7401 40.3953 74.182 41.1628L68.6006 39.1395C69.5076 36.2791 70.0657 33.1395 70.0657 29.9302C70.0657 19.1163 64.3448 9.69767 55.8331 4.39534L52.6238 11.1628C58.6936 15.2093 62.6703 22.1163 62.6703 29.9302C62.6703 32.2326 62.3215 34.4651 61.6936 36.5581L55.9727 34.5349C56.3913 33.0698 56.6006 31.5349 56.6006 29.9302C56.6006 23.4419 52.8331 17.8605 47.461 15.1395C47.2517 15.907 46.9727 16.6046 46.7634 17.3721C46.4145 18.4186 46.0657 19.5349 45.7169 20.6512C48.8564 22.5349 51.0192 26.0233 51.0192 29.9302C51.0192 30.8372 50.8796 31.7442 50.6703 32.5814L44.8796 30.4884C44.8796 30.2791 44.9494 30.0698 44.9494 29.9302C44.9494 27.2791 42.7866 25.186 40.2052 25.186C38.5308 25.186 37.0657 26.093 36.1587 27.4186L30.368 25.3256C32.1122 21.6279 35.8099 19.1163 40.1355 19.1163C41.6703 19.1163 43.1355 19.4651 44.461 20.0233C44.9494 19.0465 45.4378 18.0698 45.9262 17.093C46.275 16.3953 46.6238 15.6279 46.9727 14.9302C44.8796 14.0233 42.5773 13.4651 40.2052 13.4651C33.4378 13.4651 27.5773 17.5814 25.0657 23.3721L19.3448 21.3488C22.7634 13.186 30.7866 7.39534 40.2052 7.39534C42.2983 7.39534 44.3215 7.67441 46.275 8.23255L48.6471 1.18604C45.9959 0.418602 43.1355 0 40.2052 0C27.5773 0 16.7634 7.81395 12.368 18.8372L7.34476 17.0233V16.9535C7.34476 15.1395 5.87964 13.6744 4.06569 13.6744C2.25174 13.6744 0.786621 15.1395 0.786621 16.9535C0.786621 18.7674 2.25174 20.2326 4.06569 20.2326C5.1122 20.2326 6.01918 19.7442 6.57732 18.9767L11.6006 20.7907C10.6936 23.6512 10.1355 26.7907 10.1355 30C10.1355 42.7674 18.0889 53.6512 29.3215 57.9767L31.6936 50.9302C23.3913 47.5814 17.5308 39.4884 17.5308 30C17.5308 27.6977 17.8796 25.4651 18.5075 23.3721L24.2285 25.3953C23.8099 26.8605 23.6006 28.3953 23.6006 30C23.6006 36.2791 27.1587 41.7907 32.3215 44.5814C33.0192 43.186 33.7169 41.7907 34.4843 40.3256C34.6238 40.0465 34.7634 39.7674 34.9029 39.5581C31.5541 37.6744 29.3215 34.186 29.3215 30.0698C29.3215 29.1628 29.461 28.2558 29.6703 27.4186L35.461 29.5116C35.461 29.7209 35.3913 29.9302 35.3913 30.0698C35.3913 32.7209 37.5541 34.8139 40.1355 34.8139C41.8099 34.8139 43.275 33.907 44.182 32.5814L49.9727 34.6744C48.2285 38.3721 44.5308 40.8837 40.2052 40.8837C39.8564 40.8837 39.5773 40.8837 39.2285 40.814C39.0889 41.2326 38.9494 41.6512 38.8099 42.0698C38.3215 43.5349 37.9029 44.9302 37.4843 46.3256C38.3913 46.4651 39.2285 46.5349 40.2052 46.5349C46.9727 46.5349 52.8331 42.4186 55.3448 36.6279L61.0657 38.6512C57.6471 46.8139 49.6238 52.6046 40.2052 52.6046C37.8331 52.6046 35.6006 52.2558 33.5075 51.5581L30.2982 58.3256C33.4378 59.4419 36.7866 60 40.2052 60C52.8331 60 63.6471 52.186 68.0424 41.1628L73.6238 43.186V43.2558C73.6238 45.0698 75.0889 46.5349 76.9029 46.5349C78.7169 46.5349 80.182 45.0698 80.182 43.2558C80.182 41.4419 78.4378 39.907 76.6936 39.907Z" fill="#BDBDBD"/>
</svg>
