<svg width="61" height="60" viewBox="0 0 61 60" fill="none" xmlns="http://www.w3.org/2000/svg">
<path d="M1.96949 31.8158C2.36423 32.1316 2.75897 32.4473 3.1537 32.7631C3.54844 33.0789 4.02213 33.3158 4.41687 33.6316C4.89055 33.9473 5.36423 34.1842 5.83791 34.421C6.31159 34.6579 6.7853 34.8947 7.33793 35.1316C8.36425 35.5263 9.46949 35.921 10.5748 36.0789C11.68 36.3158 12.8642 36.3947 14.0485 36.3947C15.2327 36.3947 16.4169 36.2368 17.5221 36C17.9169 35.921 18.2327 35.8421 18.5484 35.6842C17.68 33.9473 17.2064 32.0526 17.2064 30C17.2064 26.8421 18.3116 24 20.1274 21.7894C19.7327 21.1579 19.3379 20.5263 18.9432 19.8947C18.2327 18.6316 17.68 17.2895 17.2064 15.7895C16.7327 14.2895 16.4169 12.7105 16.259 11.1316C16.1011 9.55261 16.1011 7.89471 16.259 6.31577C16.3379 5.52629 16.4958 4.73682 16.6537 3.94734C16.7327 3.7105 16.7327 3.47366 16.8116 3.23682C7.02214 8.13155 0.232666 18.3158 0.232666 30.0789C0.232666 30.1579 0.232666 30.3158 0.232666 30.3947C0.785298 30.7895 1.33791 31.2631 1.96949 31.8158Z" fill="#FF9D29"/>
<path d="M29.9172 0C29.7593 0.157895 29.5225 0.315787 29.3646 0.552629C28.733 1.18421 28.1014 1.89474 27.4698 2.60526C27.154 3 26.8382 3.39474 26.5225 3.78947C26.2067 4.18421 25.9698 4.65789 25.654 5.05263C25.3382 5.52631 25.1014 6 24.8646 6.47368C24.6277 6.94737 24.3909 7.42105 24.154 7.97368C23.7593 9 23.3645 10.1053 23.2067 11.2105C22.9698 12.3158 22.8909 13.5 22.8909 14.6842C22.8909 15.8684 23.0488 17.0526 23.2856 18.1579C23.3646 18.3947 23.4435 18.6316 23.4435 18.8684C25.4172 17.6842 27.7067 16.9737 30.154 16.9737C33.3909 16.9737 36.3909 18.1579 38.6014 20.1316C38.8382 19.9737 39.0751 19.8158 39.3909 19.6579C40.654 18.9474 41.9961 18.3947 43.4961 17.9211C44.9961 17.4474 46.5751 17.1316 48.154 16.9737C49.733 16.8158 51.3909 16.8158 52.9698 16.9737C53.7593 17.0526 54.5488 17.2105 55.3382 17.3684C56.0488 17.5263 56.8382 17.6842 57.5488 17.9211C52.8909 7.42105 42.3909 0.0789462 30.0751 0.0789462C30.154 -1.20582e-06 30.0751 0 29.9172 0Z" fill="#FF9D29"/>
<path d="M29.2861 59.4473C29.9177 58.8158 30.5493 58.1052 31.1809 57.3947C31.4966 57 31.8124 56.6052 32.1282 56.2105C32.444 55.8158 32.6809 55.3421 32.9967 54.9473C33.3125 54.4737 33.5493 54 33.7861 53.5263C34.023 53.0526 34.2598 52.5789 34.4967 52.0263C34.8914 51 35.2861 49.8947 35.444 48.7894C35.6809 47.6842 35.7598 46.5 35.7598 45.3158C35.7598 44.2105 35.6019 43.1052 35.3651 42C33.7861 42.6316 32.0493 43.0263 30.3124 43.0263C26.6809 43.0263 23.444 41.5263 21.0756 39.2368C20.523 39.6316 19.8914 40.0263 19.2598 40.3421C17.9966 41.0526 16.6546 41.6052 15.1546 42.0789C13.6546 42.5526 12.0756 42.8684 10.4967 43.0263C8.91771 43.1842 7.25981 43.1842 5.68087 43.0263C4.89139 42.9473 4.10192 42.7895 3.31245 42.6316C3.2335 42.6316 3.23349 42.6316 3.15454 42.6316C7.73349 52.421 17.444 59.3684 28.8914 60C28.8914 59.7631 29.0493 59.6052 29.2861 59.4473Z" fill="#FF9D29"/>
<path d="M59.68 30.9471C59.3642 30.6313 59.1274 30.3945 58.8116 30.0787C58.1801 29.4471 57.4695 28.8155 56.759 28.1839C56.3642 27.8681 55.9695 27.5523 55.5748 27.2366C55.18 26.9208 54.7064 26.6839 54.3116 26.3681C53.8379 26.0523 53.3642 25.8155 52.8906 25.5787C52.4169 25.3418 51.9432 25.105 51.3906 24.8681C50.3642 24.4734 49.259 24.0787 48.1537 23.9208C47.0484 23.6839 45.8642 23.605 44.68 23.605C43.7327 23.605 42.7853 23.7629 41.759 23.9208C42.7063 25.7366 43.259 27.7892 43.259 29.9997C43.259 33.7102 41.68 37.026 39.2327 39.3945C39.3906 39.6313 39.5485 39.8681 39.6274 40.105C40.3379 41.3681 40.8905 42.7102 41.3642 44.2102C41.8379 45.7102 42.1537 47.2892 42.3116 48.8681C42.4695 50.4471 42.4695 52.105 42.3116 53.6839C42.2327 54.4734 42.0748 55.2629 41.9169 56.0523C41.759 56.605 41.68 57.1576 41.5221 57.7102C52.0221 53.4471 59.5221 43.4208 60.0748 31.4997C59.9958 31.3418 59.8379 31.1839 59.68 30.9471Z" fill="#FF9D29"/>
<path d="M30.2332 34.6578C32.8493 34.6578 34.97 32.537 34.97 29.9209C34.97 27.3048 32.8493 25.1841 30.2332 25.1841C27.6171 25.1841 25.4963 27.3048 25.4963 29.9209C25.4963 32.537 27.6171 34.6578 30.2332 34.6578Z" fill="#FF9D29"/>
</svg>
