<svg width="60" height="60" viewBox="0 0 60 60" fill="none" xmlns="http://www.w3.org/2000/svg">
<path d="M29.6761 43.2171C22.5453 43.2171 16.7109 37.3828 16.7109 30.252H2.30518C2.30518 45.378 14.5501 57.6229 29.6761 57.6229V43.2171Z" fill="#BDBDBD"/>
<path d="M29.6761 43.2171C22.5453 43.2171 16.7109 37.3828 16.7109 30.252H2.30518C2.30518 45.378 14.5501 57.6229 29.6761 57.6229V43.2171Z" fill="#BDBDBD"/>
<path d="M29.6762 37.1667V30.252H22.7615C24.13 33.3492 26.579 35.8702 29.6762 37.1667Z" fill="#BDBDBD"/>
<path d="M29.6763 0C14.9104 0 2.66555 10.5162 0.000488281 24.4898H14.1181H22.5455H35.5107V37.455V45.8824V60C49.4843 57.3349 60.0005 45.018 60.0005 30.3241C59.9285 13.5414 46.387 0 29.6763 0ZM41.2009 51.8607V18.7275H8.06768C12.2454 10.9484 20.4566 5.7623 29.6763 5.7623C43.1457 5.7623 54.1661 16.7827 54.1661 30.2521C54.1661 39.4718 49.0521 47.7551 41.2009 51.8607Z" fill="#BDBDBD"/>
</svg>
