<svg width="25" height="24" viewBox="0 0 25 24" fill="none" xmlns="http://www.w3.org/2000/svg">
<g clip-path="url(#clip0_2420_149)">
<path d="M16.425 13C17.175 13 17.835 12.59 18.175 11.97L21.755 5.48C22.125 4.82 21.645 4 20.885 4H6.085L5.145 2H1.875V4H3.875L7.475 11.59L6.125 14.03C5.395 15.37 6.355 17 7.875 17H19.875V15H7.875L8.975 13H16.425ZM7.035 6H19.185L16.425 11H9.405L7.035 6ZM7.875 18C6.775 18 5.885 18.9 5.885 20C5.885 21.1 6.775 22 7.875 22C8.975 22 9.875 21.1 9.875 20C9.875 18.9 8.975 18 7.875 18ZM17.875 18C16.775 18 15.885 18.9 15.885 20C15.885 21.1 16.775 22 17.875 22C18.975 22 19.875 21.1 19.875 20C19.875 18.9 18.975 18 17.875 18Z" fill="white"/>
</g>
<defs>
<clipPath id="clip0_2420_149">
<rect width="24" height="24" fill="white" transform="translate(0.875)"/>
</clipPath>
</defs>
</svg>
